<?xml version="1.0" encoding="UTF-8"?>
<svg version="1.1" xmlns="http://www.w3.org/2000/svg" width="309" height="309">
<path d="M0 0 C0.99 0.66 1.98 1.32 3 2 C3.36914349 4.38567543 3.36914349 4.38567543 3.36076355 7.44155884 C3.36694954 9.17479149 3.36694954 9.17479149 3.3732605 10.94303894 C3.36247467 12.21689957 3.35168884 13.49076019 3.34057617 14.80322266 C3.33973029 16.153254 3.34020429 17.50328672 3.34190369 18.85331726 C3.34276658 22.52468951 3.32509355 26.1957694 3.30418181 29.86707354 C3.28546385 33.70143698 3.28366844 37.53580666 3.28010559 41.37020874 C3.27077073 48.63402187 3.24613756 55.8977 3.21605712 63.1614536 C3.18255784 71.42976377 3.16603838 79.69808029 3.15097082 87.96644139 C3.11958917 104.97770576 3.0668008 121.98883862 3 139 C2.34 139 1.68 139 1 139 C0.34 140.32 -0.32 141.64 -1 143 C-1.66 143 -2.32 143 -3 143 C-3.66 144.32 -4.32 145.64 -5 147 C-5.66 147 -6.32 147 -7 147 C-7.33 147.99 -7.66 148.98 -8 150 C-9.98260426 151.68732277 -11.9832342 153.35366057 -14 155 C-14.66 155.99 -15.32 156.98 -16 158 C-16.66 158 -17.32 158 -18 158 C-18 158.66 -18 159.32 -18 160 C-18.66 160 -19.32 160 -20 160 C-20 160.66 -20 161.32 -20 162 C-21.43646132 163.20261878 -22.87714785 164.40073426 -24.34375 165.56640625 C-25.99943022 166.99950682 -27.31943912 168.48159482 -28.6875 170.1875 C-31 173 -31 173 -34 175 C-35.32 175 -36.64 175 -38 175 C-38.33 148.93 -38.66 122.86 -39 96 C-54.71223977 111.79145635 -54.71223977 111.79145635 -70.41357422 127.59375 C-73.45141602 130.640625 -73.45141602 130.640625 -74.87356567 132.06445312 C-75.86865452 133.0626188 -76.86175702 134.06276701 -77.853302 135.06445312 C-79.35316415 136.57888843 -80.85915388 138.08696811 -82.36669922 139.59375 C-83.63910965 140.87282227 -83.63910965 140.87282227 -84.93722534 142.17773438 C-87 144 -87 144 -89 144 C-89.21140625 144.55042969 -89.4228125 145.10085937 -89.640625 145.66796875 C-91.47545651 148.81565384 -94.03538915 150.94646426 -96.75 153.3125 C-100.66998081 156.80594239 -104.26011838 160.28774292 -107.56640625 164.37890625 C-109.85775019 166.9699355 -112.50618313 169.12443931 -115.16796875 171.32421875 C-117.09858099 172.94798236 -117.09858099 172.94798236 -118.42578125 175.20703125 C-118.94527344 175.79871094 -119.46476563 176.39039063 -120 177 C-122.59838867 177.11206055 -122.59838867 177.11206055 -125 177 C-125.20323762 169.43821255 -125.34310386 161.87713167 -125.43945312 154.31323242 C-125.47962611 151.74167564 -125.53417673 149.17030092 -125.60351562 146.59936523 C-125.70083062 142.89781771 -125.74599092 139.19868926 -125.78125 135.49609375 C-125.82254028 134.35103867 -125.86383057 133.20598358 -125.90637207 132.02622986 C-125.91075784 124.18304333 -125.91075784 124.18304333 -123.34155273 120.84573364 C-121.30952545 119.07152982 -119.21707636 117.53341112 -117 116 C-115.31144946 114.3555084 -113.64394441 112.68908328 -112 111 C-110.90428556 109.89194754 -109.80760746 108.78484756 -108.71020508 107.6784668 C-108.11641556 107.07822189 -107.52262604 106.47797699 -106.9108429 105.85954285 C-104.24928329 103.17122786 -101.58241114 100.48820921 -98.9152832 97.80541992 C-97.50628456 96.38627871 -96.09907372 94.96536036 -94.69360352 93.54272461 C-92.6610575 91.48605201 -90.62223643 89.43579006 -88.58203125 87.38671875 C-87.95182571 86.74619064 -87.32162018 86.10566254 -86.6723175 85.44572449 C-85.15237114 83.92538518 -83.58073023 82.45703826 -82 81 C-81.34 81 -80.68 81 -80 81 C-79.7834375 80.45859375 -79.566875 79.9171875 -79.34375 79.359375 C-77.53500003 76.18354656 -75.08276201 73.79271919 -72.5 71.25 C-72.00113281 70.74339844 -71.50226563 70.23679687 -70.98828125 69.71484375 C-67.25341139 66 -67.25341139 66 -65 66 C-64.7834375 65.45859375 -64.566875 64.9171875 -64.34375 64.359375 C-62.53500003 61.18354656 -60.08276201 58.79271919 -57.5 56.25 C-57.00113281 55.74339844 -56.50226563 55.23679688 -55.98828125 54.71484375 C-52.25341139 51 -52.25341139 51 -50 51 C-49.7834375 50.45859375 -49.566875 49.9171875 -49.34375 49.359375 C-47.53500003 46.18354656 -45.08276201 43.79271919 -42.5 41.25 C-42.00113281 40.74339844 -41.50226563 40.23679688 -40.98828125 39.71484375 C-37.25341139 36 -37.25341139 36 -35 36 C-34.61328125 35.12601563 -34.61328125 35.12601563 -34.21875 34.234375 C-32.90165983 31.8197097 -31.44911616 30.18259823 -29.5 28.25 C-28.8915625 27.63640625 -28.283125 27.0228125 -27.65625 26.390625 C-26 25 -26 25 -24 25 C-24 24.34 -24 23.68 -24 23 C-23.34 23 -22.68 23 -22 23 C-22 22.34 -22 21.68 -22 21 C-21.34 21 -20.68 21 -20 21 C-19.61328125 20.12601563 -19.61328125 20.12601563 -19.21875 19.234375 C-17.90165983 16.8197097 -16.44911616 15.18259823 -14.5 13.25 C-13.8915625 12.63640625 -13.283125 12.0228125 -12.65625 11.390625 C-11 10 -11 10 -9 10 C-9 9.34 -9 8.68 -9 8 C-8.34 8 -7.68 8 -7 8 C-7 7.34 -7 6.68 -7 6 C-6.34 6 -5.68 6 -5 6 C-4.731875 5.38125 -4.46375 4.7625 -4.1875 4.125 C-3 2 -3 2 0 0 Z " fill="#F7F9FA" transform="translate(266,26)"/>
<path d="M0 0 C6.73607253 13.47214506 4.17146009 42.67339981 1 57 C-3.22356207 67.56908449 -13.21779658 75.64504456 -23 81 C-23.66 81 -24.32 81 -25 81 C-25.2371875 81.56203125 -25.474375 82.1240625 -25.71875 82.703125 C-27.28947697 85.51894042 -29.21471464 87.47955416 -31.5 89.75 C-32.69109375 90.94882813 -32.69109375 90.94882813 -33.90625 92.171875 C-36 94 -36 94 -38 94 C-38 94.66 -38 95.32 -38 96 C-38.66 96 -39.32 96 -40 96 C-40.38671875 96.87398437 -40.38671875 96.87398437 -40.78125 97.765625 C-42.09834017 100.1802903 -43.55088384 101.81740177 -45.5 103.75 C-46.1084375 104.36359375 -46.716875 104.9771875 -47.34375 105.609375 C-49 107 -49 107 -51 107 C-51 107.66 -51 108.32 -51 109 C-51.66 109 -52.32 109 -53 109 C-53 109.66 -53 110.32 -53 111 C-53.66 111 -54.32 111 -55 111 C-55.38671875 111.87398437 -55.38671875 111.87398437 -55.78125 112.765625 C-57.09834017 115.1802903 -58.55088384 116.81740177 -60.5 118.75 C-61.1084375 119.36359375 -61.716875 119.9771875 -62.34375 120.609375 C-64 122 -64 122 -66 122 C-66 122.66 -66 123.32 -66 124 C-66.66 124 -67.32 124 -68 124 C-68 124.66 -68 125.32 -68 126 C-68.66 126 -69.32 126 -70 126 C-70 126.66 -70 127.32 -70 128 C-70.66 128 -71.32 128 -72 128 C-72.25136719 128.58910156 -72.50273438 129.17820313 -72.76171875 129.78515625 C-74.15455401 132.27644202 -75.6208572 133.62300414 -77.8125 135.4375 C-81.0323441 138.1633247 -84.05440203 140.97479128 -87 144 C-88.10879517 145.10746582 -88.10879517 145.10746582 -89.23999023 146.23730469 C-91.74999034 148.74974708 -94.24385656 151.27676832 -96.73292542 153.80987549 C-99.18988265 156.30710859 -101.65495085 158.79627164 -104.12036133 161.28515625 C-105.4195884 162.59957227 -106.71612483 163.91665308 -108.01000977 165.23632812 C-109.88636876 167.14901294 -111.77219781 169.05189757 -113.66015625 170.953125 C-114.23629166 171.54474426 -114.81242706 172.13636353 -115.40602112 172.74591064 C-118.19933375 175.54038648 -120.10748822 177.27715962 -124 178 C-124.13919298 170.3939929 -124.24571781 162.78811829 -124.31087303 155.18112659 C-124.3421499 151.64853148 -124.38455065 148.11680942 -124.45263672 144.5847168 C-124.53047326 140.52123782 -124.5594473 136.45867167 -124.5859375 132.39453125 C-124.61690521 131.1297847 -124.64787292 129.86503815 -124.67977905 128.56196594 C-124.68307558 119.97236046 -124.68307558 119.97236046 -122.71221924 117.1668396 C-121.11962891 115.8503418 -121.11962891 115.8503418 -118 114 C-117.175 113.01 -116.35 112.02 -115.5 111 C-112.9107857 107.89294284 -110.10063514 105.58386262 -107 103 C-105.79588316 101.54238488 -104.5923559 100.08403692 -103.4140625 98.60546875 C-101.14690881 96.03143514 -98.52687424 93.88712576 -95.921875 91.6640625 C-92.68808801 88.86407621 -89.74963112 85.79246718 -86.8125 82.6875 C-85 81 -85 81 -83 81 C-82.7834375 80.45859375 -82.566875 79.9171875 -82.34375 79.359375 C-80.53500003 76.18354656 -78.08276201 73.79271919 -75.5 71.25 C-75.00113281 70.74339844 -74.50226563 70.23679687 -73.98828125 69.71484375 C-70.25341139 66 -70.25341139 66 -68 66 C-67.7834375 65.45859375 -67.566875 64.9171875 -67.34375 64.359375 C-65.53500003 61.18354656 -63.08276201 58.79271919 -60.5 56.25 C-60.00113281 55.74339844 -59.50226563 55.23679688 -58.98828125 54.71484375 C-55.25341139 51 -55.25341139 51 -53 51 C-52.34 49.68 -51.68 48.36 -51 47 C-50.34 47 -49.68 47 -49 47 C-48.34 45.68 -47.68 44.36 -47 43 C-46.34 43 -45.68 43 -45 43 C-44.731875 42.360625 -44.46375 41.72125 -44.1875 41.0625 C-43 39 -43 39 -40 38 C-40 37.34 -40 36.68 -40 36 C-39.34 36 -38.68 36 -38 36 C-37.34 34.68 -36.68 33.36 -36 32 C-35.34 32 -34.68 32 -34 32 C-33.34 30.68 -32.68 29.36 -32 28 C-31.34 28 -30.68 28 -30 28 C-29.505 26.515 -29.505 26.515 -29 25 C-27.0625 22.8125 -27.0625 22.8125 -25 21 C-24.34 21 -23.68 21 -23 21 C-22.34 19.68 -21.68 18.36 -21 17 C-20.34 17 -19.68 17 -19 17 C-18.79375 16.443125 -18.5875 15.88625 -18.375 15.3125 C-16.83059277 12.71508783 -14.93722357 11.15679307 -12.5859375 9.29296875 C-9.59713911 6.85628829 -6.94617686 4.05535112 -4.375 1.1875 C-3 0 -3 0 0 0 Z " fill="#F7F8F9" transform="translate(174,26)"/>
<path d="M0 0 C1.65322266 0.01740234 1.65322266 0.01740234 3.33984375 0.03515625 C4.99693359 0.04869141 4.99693359 0.04869141 6.6875 0.0625 C7.54214844 0.07410156 8.39679688 0.08570313 9.27734375 0.09765625 C9.27734375 0.75765625 9.27734375 1.41765625 9.27734375 2.09765625 C9.93734375 2.09765625 10.59734375 2.09765625 11.27734375 2.09765625 C12.7578125 4.3359375 12.7578125 4.3359375 14.46484375 7.41015625 C17.8770719 13.43890388 21.5123275 19.28419651 25.27734375 25.09765625 C25.93734375 23.77765625 26.59734375 22.45765625 27.27734375 21.09765625 C27.93734375 21.09765625 28.59734375 21.09765625 29.27734375 21.09765625 C29.38433594 20.53691406 29.49132812 19.97617188 29.6015625 19.3984375 C30.39417587 16.69988677 31.60497475 14.67222414 33.08984375 12.28515625 C35.56372279 8.2613771 37.95325886 4.20949875 40.27734375 0.09765625 C44.56734375 0.09765625 48.85734375 0.09765625 53.27734375 0.09765625 C53.27734375 15.93765625 53.27734375 31.77765625 53.27734375 48.09765625 C48.65734375 48.09765625 44.03734375 48.09765625 39.27734375 48.09765625 C38.94734375 41.49765625 38.61734375 34.89765625 38.27734375 28.09765625 C35.73100529 32.61295905 35.73100529 32.61295905 33.19189453 37.13232422 C31.71893948 39.72724806 30.3966454 41.9783546 28.27734375 44.09765625 C24.9609375 44.66015625 24.9609375 44.66015625 21.27734375 44.09765625 C19.10011044 42.0640677 17.77837056 39.68649084 16.33984375 37.09765625 C14.32890625 33.63265625 14.32890625 33.63265625 12.27734375 30.09765625 C11.94734375 36.03765625 11.61734375 41.97765625 11.27734375 48.09765625 C6.65734375 48.09765625 2.03734375 48.09765625 -2.72265625 48.09765625 C-2.8898458 41.42258507 -3.05044798 34.74740109 -3.20483398 28.07202148 C-3.25834105 25.79919117 -3.31367681 23.52640317 -3.37084961 21.25366211 C-3.45251841 17.99472176 -3.52769876 14.73568789 -3.6015625 11.4765625 C-3.62859756 10.45365616 -3.65563263 9.43074982 -3.68348694 8.37684631 C-3.70358322 7.4359465 -3.7236795 6.49504669 -3.74438477 5.52563477 C-3.76437027 4.69290543 -3.78435577 3.86017609 -3.8049469 3.00221252 C-3.67214443 -0.07140253 -3.09217773 0.11091025 0 0 Z " fill="#ECF1F5" transform="translate(139.72265625,221.90234375)"/>
<path d="M0 0 C3.96 0 7.92 0 12 0 C15.07840003 3.47561293 16.88615999 6.0162246 19 10 C20.07742596 11.77443374 21.16053121 13.54543476 22.25 15.3125 C23.16871375 16.87379724 24.08541967 18.43627789 25 20 C25.99828444 21.6676948 26.99783353 23.33463513 28 25 C32.55178942 17.90205338 37.01067572 10.75468271 41.3984375 3.5546875 C43 1 43 1 44 0 C47.96 0 51.92 0 56 0 C56 15.84 56 31.68 56 48 C51.38 48 46.76 48 42 48 C41.67 41.73 41.34 35.46 41 29 C38.36423192 33.91873333 38.36423192 33.91873333 35.796875 38.87304688 C33.05902158 43.70004591 33.05902158 43.70004591 29.97265625 44.57421875 C27.8125 44.65625 27.8125 44.65625 24 44 C22 41 22 41 22 38 C21.34 38 20.68 38 20 38 C18.12422691 35.45349592 16.61674188 32.72293369 15 30 C14.67 35.94 14.34 41.88 14 48 C9.38 48 4.76 48 0 48 C0 32.16 0 16.32 0 0 Z " fill="#F0F3F5" transform="translate(50,222)"/>
<path d="M0 0 C1.16015625 -0.020625 2.3203125 -0.04125 3.515625 -0.0625 C13.57666252 -0.10802506 21.16520712 1.0941045 28.5 8.25 C30.91564046 11.87346069 30.79781669 14.56603982 30.75 18.75 C30.76160156 19.76513672 30.76160156 19.76513672 30.7734375 20.80078125 C30.75884811 24.49919257 30.60264442 26.09603337 28.5 29.25 C27.84 29.25 27.18 29.25 26.5 29.25 C26.5 29.91 26.5 30.57 26.5 31.25 C25.51 31.91 24.52 32.57 23.5 33.25 C25.11674681 36.67946293 27.07597677 39.81263052 29.125 43 C29.75664062 43.98484375 30.38828125 44.9696875 31.0390625 45.984375 C31.52117187 46.73203125 32.00328125 47.4796875 32.5 48.25 C17.27042318 49.47107966 17.27042318 49.47107966 13.0703125 46.57421875 C10.86386823 43.57191772 9.67471122 40.77413366 8.5 37.25 C6.52 36.92 4.54 36.59 2.5 36.25 C2.5 40.21 2.5 44.17 2.5 48.25 C-2.78 48.25 -8.06 48.25 -13.5 48.25 C-13.52464296 41.57479118 -13.54283267 34.8996086 -13.55493164 28.22436523 C-13.55997325 25.95157409 -13.56680637 23.6787862 -13.57543945 21.40600586 C-13.58751261 18.14696449 -13.59322987 14.88796583 -13.59765625 11.62890625 C-13.60281754 10.60599991 -13.60797882 9.58309357 -13.61329651 8.52919006 C-13.61337204 7.58829025 -13.61344757 6.64739044 -13.61352539 5.67797852 C-13.615746 4.84524918 -13.61796661 4.01251984 -13.62025452 3.15455627 C-13.28651275 -2.13114932 -3.91826395 0.01696218 0 0 Z M2.5 12.25 C2.5 16.21 2.5 20.17 2.5 24.25 C4.088125 24.311875 5.67625 24.37375 7.3125 24.4375 C8.20582031 24.47230469 9.09914062 24.50710937 10.01953125 24.54296875 C12.54549014 24.46444663 12.54549014 24.46444663 14.26171875 22.85546875 C15.82266202 20.83165902 16.5 19.83990545 16.5 17.25 C14.71363964 14.2938684 14.71363964 14.2938684 11.5 12.25 C8.37254763 11.82708908 5.67839874 12.01280606 2.5 12.25 Z " fill="#EAEFF3" transform="translate(236.5,221.75)"/>
<path d="M0 0 C4.95 0 9.9 0 15 0 C15 15.84 15 31.68 15 48 C9.72 48 4.44 48 -1 48 C-1.02464296 41.32479118 -1.04283267 34.6496086 -1.05493164 27.97436523 C-1.05997325 25.70157409 -1.06680637 23.4287862 -1.07543945 21.15600586 C-1.08751261 17.89696449 -1.09322987 14.63796583 -1.09765625 11.37890625 C-1.10281754 10.35599991 -1.10797882 9.33309357 -1.11329651 8.27919006 C-1.11337204 7.33829025 -1.11344757 6.39739044 -1.11352539 5.42797852 C-1.115746 4.59524918 -1.11796661 3.76251984 -1.12025452 2.90455627 C-1 1 -1 1 0 0 Z " fill="#F2F6F9" transform="translate(114,222)"/>
<path d="M0 0 C4.95 0 9.9 0 15 0 C15 15.84 15 31.68 15 48 C10.05 48 5.1 48 0 48 C0 32.16 0 16.32 0 0 Z " fill="#ECF2F6" transform="translate(201,222)"/>
<path d="M0 0 C-0.41317222 4.82034262 -2.38019915 6.90992611 -6 10 C-6.66 10 -7.32 10 -8 10 C-8 10.66 -8 11.32 -8 12 C-8.66 12 -9.32 12 -10 12 C-10 12.66 -10 13.32 -10 14 C-10.66 14 -11.32 14 -12 14 C-12 14.66 -12 15.32 -12 16 C-12.66 16 -13.32 16 -14 16 C-14 16.66 -14 17.32 -14 18 C-14.66 18 -15.32 18 -16 18 C-16 18.66 -16 19.32 -16 20 C-16.66 20 -17.32 20 -18 20 C-18 20.66 -18 21.32 -18 22 C-19.43798828 23.41235352 -19.43798828 23.41235352 -21.4453125 25.06640625 C-27.02795547 29.81128372 -32.06717733 35.05088639 -37.171875 40.29882812 C-37.89632812 41.03423828 -38.62078125 41.76964844 -39.3671875 42.52734375 C-40.01800293 43.19499756 -40.66881836 43.86265137 -41.33935547 44.55053711 C-43 46 -43 46 -45 46 C-45 46.66 -45 47.32 -45 48 C-46.6875 50.125 -46.6875 50.125 -49 52 C-51.75 52.25 -51.75 52.25 -54 52 C-54 51.01 -54 50.02 -54 49 C-53.34 49 -52.68 49 -52 49 C-52 48.34 -52 47.68 -52 47 C-51.34 47 -50.68 47 -50 47 C-50 46.34 -50 45.68 -50 45 C-49.34 45 -48.68 45 -48 45 C-48 44.34 -48 43.68 -48 43 C-47.34 43 -46.68 43 -46 43 C-46 42.34 -46 41.68 -46 41 C-44.55102539 39.57446289 -44.55102539 39.57446289 -42.53515625 37.91015625 C-37.91807523 33.98416374 -33.68208447 29.75890953 -29.4375 25.4375 C-24.93840498 20.85741317 -20.45647641 16.38503535 -15.48486328 12.31494141 C-13.03232567 10.14306249 -11.0883937 7.51678215 -9 5 C-3.84251969 0 -3.84251969 0 0 0 Z " fill="#C6CEDB" transform="translate(221,151)"/>
<path d="M0 0 C0.99 0 1.98 0 3 0 C2.58682778 4.82034262 0.61980085 6.90992611 -3 10 C-3.66 10 -4.32 10 -5 10 C-5 10.66 -5 11.32 -5 12 C-5.66 12 -6.32 12 -7 12 C-7 12.66 -7 13.32 -7 14 C-7.66 14 -8.32 14 -9 14 C-9 14.66 -9 15.32 -9 16 C-9.66 16 -10.32 16 -11 16 C-11 16.66 -11 17.32 -11 18 C-11.66 18 -12.32 18 -13 18 C-13 18.66 -13 19.32 -13 20 C-13.66 20 -14.32 20 -15 20 C-15 20.66 -15 21.32 -15 22 C-18.62690383 23.20896794 -19.37309617 23.20896794 -23 22 C-22.56429687 21.64808594 -22.12859375 21.29617187 -21.6796875 20.93359375 C-18.53218702 18.32430223 -15.66072669 15.72618098 -13.0625 12.5625 C-10.25156129 9.15300561 -7.10164391 6.33220618 -3.734375 3.48046875 C-1.91019463 1.96268408 -1.91019463 1.96268408 0 0 Z " fill="#BCC5D4" transform="translate(218,151)"/>
<path d="M0 0 C0.33 0.99 0.66 1.98 1 3 C-1.97 5.97 -4.94 8.94 -8 12 C-8.99 11.67 -9.98 11.34 -11 11 C-10.52525937 6.7273343 -8.15665032 4.726198 -5 2 C-2.1875 0.6875 -2.1875 0.6875 0 0 Z " fill="#CAD2E0" transform="translate(199,172)"/>
<path d="M0 0 C0.66 0.33 1.32 0.66 2 1 C0.90299157 4.2910253 0.12380142 4.96023288 -2.5 7.0625 C-5.18106401 9.17721767 -5.18106401 9.17721767 -7 12 C-7.66 12 -8.32 12 -9 12 C-9 12.66 -9 13.32 -9 14 C-10.8125 15.6875 -10.8125 15.6875 -13 17 C-13.99 16.67 -14.98 16.34 -16 16 C-10.72 10.72 -5.44 5.44 0 0 Z " fill="#C1C8D7" transform="translate(184,107)"/>
<path d="M0 0 C0.66 0.33 1.32 0.66 2 1 C0.88200014 2.33920838 -0.24461897 3.67122556 -1.375 5 C-2.31472656 6.11375 -2.31472656 6.11375 -3.2734375 7.25 C-4.12808594 8.11625 -4.12808594 8.11625 -5 9 C-5.66 9 -6.32 9 -7 9 C-7.23460937 9.56203125 -7.46921875 10.1240625 -7.7109375 10.703125 C-9.30663 13.54635891 -11.28924543 15.48098127 -13.625 17.75 C-14.44226562 18.54921875 -15.25953125 19.3484375 -16.1015625 20.171875 C-16.72804687 20.77515625 -17.35453125 21.3784375 -18 22 C-18.33 21.01 -18.66 20.02 -19 19 C-18.113125 18.29875 -17.22625 17.5975 -16.3125 16.875 C-14.06108985 15.00849135 -12.40224851 13.28269821 -10.5 11 C-8.61404478 8.73685373 -7.05611099 7.12151322 -4.8125 5.3125 C-1.87245245 3.12328275 -1.87245245 3.12328275 0 0 Z " fill="#B1B5C6" transform="translate(69,126)"/>
<path d="M0 0 C1.32 0.33 2.64 0.66 4 1 C4.33 2.65 4.66 4.3 5 6 C4.01 5.34 3.02 4.68 2 4 C1.67 9.94 1.34 15.88 1 22 C-3.62 22 -8.24 22 -13 22 C-13 21.67 -13 21.34 -13 21 C-8.71 21 -4.42 21 0 21 C0 14.07 0 7.14 0 0 Z " fill="#BBC4D7" transform="translate(63,248)"/>
<path d="M0 0 C2.69721986 3.25526534 4.8014609 6.33576817 7 10 C1.39 10 -4.22 10 -10 10 C-10 9.67 -10 9.34 -10 9 C-5.71 9 -1.42 9 3 9 C2.67 7.35 2.34 5.7 2 4 C1.34 4 0.68 4 0 4 C0 2.68 0 1.36 0 0 Z " fill="#A7C1E4" transform="translate(262,260)"/>
<path d="M0 0 C0.99 0 1.98 0 3 0 C2.63287028 2.71675995 2.27255401 4.61063713 0.6875 6.875 C-0.1478125 7.431875 -0.1478125 7.431875 -1 8 C-3.10546875 7.5703125 -3.10546875 7.5703125 -5 7 C-4.24172908 5.82512964 -3.46792245 4.66027408 -2.6875 3.5 C-2.25824219 2.8503125 -1.82898438 2.200625 -1.38671875 1.53125 C-0.70029297 0.77328125 -0.70029297 0.77328125 0 0 Z " fill="#D0D8E7" transform="translate(218,151)"/>
<path d="M0 0 C0.33 0.66 0.66 1.32 1 2 C-1.64 5.3 -4.28 8.6 -7 12 C-7.99 11.34 -8.98 10.68 -10 10 C-8.88121617 8.82737096 -7.75476949 7.66204862 -6.625 6.5 C-5.68527344 5.52546875 -5.68527344 5.52546875 -4.7265625 4.53125 C-3 3 -3 3 -1 3 C-0.67 2.01 -0.34 1.02 0 0 Z " fill="#BDC8D5" transform="translate(232,59)"/>
<path d="M0 0 C0.33 0.99 0.66 1.98 1 3 C-0.28548409 4.33929505 -1.57858155 5.67128643 -2.875 7 C-3.59429687 7.7425 -4.31359375 8.485 -5.0546875 9.25 C-7 11 -7 11 -9 11 C-7.59155282 7.78475695 -5.89655214 5.67816132 -3.375 3.25 C-2.74335938 2.63640625 -2.11171875 2.0228125 -1.4609375 1.390625 C-0.73777344 0.70226563 -0.73777344 0.70226563 0 0 Z " fill="#9CA3B0" transform="translate(255,36)"/>
<path d="M0 0 C0.66 0.33 1.32 0.66 2 1 C1.67 2.98 1.34 4.96 1 7 C0.34 7 -0.32 7 -1 7 C-1.33 7.66 -1.66 8.32 -2 9 C-2.99 7.68 -3.98 6.36 -5 5 C-3.35 3.35 -1.7 1.7 0 0 Z " fill="#ACBAC7" transform="translate(208,160)"/>
<path d="M0 0 C1.65 0 3.3 0 5 0 C4.34 1.65 3.68 3.3 3 5 C1.35 5 -0.3 5 -2 5 C-2 4.01 -2 3.02 -2 2 C-1.34 2 -0.68 2 0 2 C0 1.34 0 0.68 0 0 Z " fill="#ADC3D2" transform="translate(169,198)"/>
<path d="M0 0 C0.33 0 0.66 0 1 0 C1.0809723 2.43816585 1.14046972 4.87364384 1.1875 7.3125 C1.22520508 8.34793945 1.22520508 8.34793945 1.26367188 9.40429688 C1.33834499 14.55674183 1.33834499 14.55674183 -0.51171875 16.98046875 C-1.24841797 17.48513672 -1.24841797 17.48513672 -2 18 C-2.042721 16.33388095 -2.04063832 14.66617115 -2 13 C-1.67 12.67 -1.34 12.34 -1 12 C-0.76572222 9.98405418 -0.58663876 7.961526 -0.4375 5.9375 C-0.35371094 4.83277344 -0.26992188 3.72804687 -0.18359375 2.58984375 C-0.12300781 1.73519531 -0.06242187 0.88054687 0 0 Z " fill="#91B2CD" transform="translate(266,233)"/>
<path d="M0 0 C0.33 1.32 0.66 2.64 1 4 C-1.85306797 6.32472205 -4.54074837 7.7508258 -8 9 C-6.625 7 -6.625 7 -5 5 C-4.34 5 -3.68 5 -3 5 C-2.690625 4.360625 -2.38125 3.72125 -2.0625 3.0625 C-1 1 -1 1 0 0 Z " fill="#C0C3D3" transform="translate(219,72)"/>
<path d="M0 0 C1.32 0 2.64 0 4 0 C4 0.66 4 1.32 4 2 C2.04072937 3.7143618 0.04119788 5.38405168 -2 7 C-2.33 6.01 -2.66 5.02 -3 4 C-1.8125 1.8125 -1.8125 1.8125 0 0 Z " fill="#BECED8" transform="translate(157,186)"/>
<path d="M0 0 C0.66 0 1.32 0 2 0 C0.73882275 3.88862987 -0.45264167 5.89375599 -4 8 C-4.66 8 -5.32 8 -6 8 C-5.34 6.68 -4.68 5.36 -4 4 C-3.34 4 -2.68 4 -2 4 C-1.34 2.68 -0.68 1.36 0 0 Z " fill="#AFB6C5" transform="translate(127,69)"/>
<path d="M0 0 C1.32 0 2.64 0 4 0 C4 0.66 4 1.32 4 2 C3.34 2 2.68 2 2 2 C2 2.66 2 3.32 2 4 C0.625 5.625 0.625 5.625 -1 7 C-1.66 7 -2.32 7 -3 7 C-3 6.01 -3 5.02 -3 4 C-2.34 4 -1.68 4 -1 4 C-0.67 2.68 -0.34 1.36 0 0 Z " fill="#A4BECF" transform="translate(244,184)"/>
<path d="M0 0 C0.66 0.33 1.32 0.66 2 1 C-0.31 3.31 -2.62 5.62 -5 8 C-5.33 7.01 -5.66 6.02 -6 5 C-4.02 3.35 -2.04 1.7 0 0 Z " fill="#C4C8D2" transform="translate(56,140)"/>
<path d="M0 0 C0.99 0 1.98 0 3 0 C3.33 1.65 3.66 3.3 4 5 C5.98 5 7.96 5 10 5 C10 5.33 10 5.66 10 6 C7.69 6 5.38 6 3 6 C2.01 4.02 1.02 2.04 0 0 Z " fill="#97ABC3" transform="translate(158,260)"/>
</svg>
